<?xml version="1.0" encoding="utf-8"?>
<!-- Generator: Adobe Illustrator 23.0.1, SVG Export Plug-In . SVG Version: 6.00 Build 0)  -->
<svg version="1.1" xmlns="http://www.w3.org/2000/svg" xmlns:xlink="http://www.w3.org/1999/xlink" x="0px" y="0px"
	 viewBox="0 0 1000 1000" style="enable-background:new 0 0 1000 1000;" xml:space="preserve">
<style type="text/css">
	.st0{fill:#8FBC00;}
	.st1{fill:#FFFFFF;}
	.st2{display:none;}
	.st3{display:inline;fill:#FFC307;}
</style>
<g id="play">
	<g>
		<polygon class="st0" points="500,0.01 66.99,250.01 66.99,750 500,999.99 933.01,750 933.01,250.01 		"/>
		<path class="st1" d="M677.58,476.76L389.22,302.83c-10.58-6.37-24.63-7.32-36.23-2.38C341.3,305.36,334,315.33,334,326.11v347.75
			c0,10.89,7.3,20.82,18.99,25.73c4.94,2.07,10.35,3.11,15.8,3.11c7.12,0,14.33-1.88,20.43-5.6l288.36-173.78
			c9.1-5.56,14.42-14.15,14.42-23.28C692.05,490.76,686.59,482.21,677.58,476.76z"/>
	</g>
</g>
<g id="Layer_3" class="st2">
	<polygon class="st3" points="500,0.01 66.99,250.01 66.99,750 500,999.99 933.01,750 933.01,250.01 	"/>
</g>
</svg>
