<?xml version="1.0" encoding="utf-8"?>
<!-- Generator: Adobe Illustrator 23.0.1, SVG Export Plug-In . SVG Version: 6.00 Build 0)  -->
<svg version="1.1" xmlns="http://www.w3.org/2000/svg" xmlns:xlink="http://www.w3.org/1999/xlink" x="0px" y="0px"
	 viewBox="0 0 1000 1000" style="enable-background:new 0 0 1000 1000;" xml:space="preserve">
<style type="text/css">
	.st0{display:none;}
	.st1{display:inline;}
	.st2{fill:#8FBC00;}
	.st3{fill:#FFC307;}
	.st4{display:inline;fill:none;stroke:#000000;stroke-width:23;stroke-miterlimit:10;}
	.st5{fill:#FFFFFF;}
	.st6{display:inline;fill:#00BFC7;}
</style>
<g id="play" class="st0">
	<g class="st1">
		<polygon class="st2" points="500,0.01 66.99,250.01 66.99,750 500,999.99 933.01,750 933.01,250.01 		"/>
		<path d="M677.58,476.76L389.22,302.83c-10.58-6.37-24.63-7.32-36.23-2.38C341.3,305.36,334,315.33,334,326.11v347.75
			c0,10.89,7.3,20.82,18.99,25.73c4.94,2.07,10.35,3.11,15.8,3.11c7.12,0,14.33-1.88,20.43-5.6l288.36-173.78
			c9.1-5.56,14.42-14.15,14.42-23.28C692.05,490.76,686.59,482.21,677.58,476.76z"/>
	</g>
</g>
<g id="sa">
	<polygon class="st3" points="500,0.01 66.99,250.01 66.99,750 500,999.99 933.01,750 933.01,250.01 	"/>
	<g id="Layer_4">
		<g class="st0">
			<rect x="639" y="265.5" class="st4" width="72" height="469"/>
			<rect x="523" y="472.5" class="st4" width="72" height="262"/>
			<rect x="405" y="391.5" class="st4" width="72" height="343"/>
			<rect x="289" y="580.5" class="st4" width="72" height="154"/>
		</g>
	</g>
	<g>
		<path class="st5" d="M559.39,442.92v261.6c0,16.34-6.68,31.19-17.44,41.95c-10.76,10.76-25.61,17.44-41.95,17.44h0
			c-16.34,0-31.19-6.68-41.95-17.44c-10.76-10.76-17.44-25.61-17.44-41.95v-261.6c0-16.34,6.68-31.19,17.44-41.95
			c10.76-10.76,25.61-17.44,41.95-17.44h0c16.34,0,31.19,6.68,41.95,17.44C552.71,411.73,559.39,426.58,559.39,442.92z"/>
		<path class="st5" d="M500,236.09c16.84,0,32.1,6.83,43.14,17.87C554.17,265,561,280.25,561,297.09c0,16.84-6.83,32.1-17.87,43.14
			C532.1,351.27,516.84,358.1,500,358.1c-16.84,0-32.1-6.83-43.14-17.87C445.83,329.19,439,313.94,439,297.09
			c0-16.84,6.83-32.1,17.87-43.14C467.9,242.92,483.16,236.09,500,236.09z"/>
	</g>
</g>
<g id="Layer_5" class="st0">
	<polygon class="st6" points="500,0.01 66.99,250.01 66.99,750 500,999.99 933.01,750 933.01,250.01 	"/>
</g>
<g id="Layer_6" class="st0">
	<g class="st1">
		<path d="M459.66,713.28v-66.92c0-3.8,3.08-6.88,6.88-6.88h66.92c3.8,0,6.88,3.08,6.88,6.88v66.92c0,3.8-3.08,6.88-6.88,6.88
			h-66.92C462.74,720.16,459.66,717.08,459.66,713.28z"/>
		<path d="M535.62,624.44h-0.06h-76.41c-3.8,0-6.88-3.08-6.88-6.88c0-0.16,0.01-0.31,0.02-0.47c-0.1-5.18-0.17-9.43-0.22-12.76
			c-0.07-4.52-0.1-6.84-0.1-6.94c0-12.75,1.08-24.48,3.23-35.2c2.17-10.8,5.45-20.48,9.83-29.02l-0.02-0.01l0.01-0.02l0,0
			c0.04-0.07,0.08-0.15,0.12-0.22c4.37-8.5,10.84-17.42,19.4-26.79c8.42-9.22,18.93-18.94,31.51-29.22
			c12.05-9.79,21.8-17.99,29.21-24.61c7.01-6.25,11.57-10.76,13.65-13.51l-0.01-0.01c0.15-0.2,0.31-0.38,0.47-0.56
			c3.02-4.04,5.32-8.34,6.88-12.88c1.62-4.69,2.42-9.62,2.42-14.77c0-14.33-5.78-26.64-17.34-37.04l0,0l-0.02-0.02l0,0.01
			c-0.07-0.06-0.13-0.12-0.19-0.18c-5.79-5.1-12.59-8.95-20.4-11.53c-8.11-2.68-17.35-4.03-27.73-4.03
			c-9.95,0-19.03,1.41-27.24,4.21c-8.15,2.78-15.5,6.94-22.06,12.48c-6.51,5.53-12.04,12.57-16.58,21.09
			c-4.63,8.69-8.24,19-10.82,30.9l0,0.01c-0.78,3.58-4.2,5.89-7.77,5.34l-77.07-9.6l-0.02,0c-3.77-0.47-6.45-3.91-5.98-7.68l0-0.03
			c1.18-18.64,5.76-35.92,13.72-51.83c8.01-16.01,19.42-30.55,34.21-43.63l4.54,5.13l-4.56-5.15c0.08-0.07,0.16-0.14,0.24-0.2
			c14.8-12.98,31.86-22.73,51.23-29.24c19.31-6.49,40.82-9.74,64.55-9.74c24.85,0,47.25,3.29,67.2,9.85
			c20.14,6.63,37.75,16.59,52.81,29.88c14.97,13.26,26.25,27.64,33.8,43.17c7.62,15.67,11.43,32.43,11.43,50.3
			c0,9.89-1.42,19.55-4.24,28.98c-2.81,9.39-7.02,18.53-12.6,27.39l-5.81-3.66l5.82,3.67c-0.06,0.09-0.12,0.19-0.18,0.28
			c-5.54,8.65-14.07,18.78-25.6,30.38c-11.31,11.38-25.65,24.29-43.01,38.71c-8.62,7.19-15.63,13.67-21,19.46
			c-5.03,5.42-8.48,10.06-10.33,13.95c-1.83,3.83-3.19,9.39-4.07,16.67c-0.95,7.84-1.32,17.36-1.12,28.57l0.03,0
			c0.07,3.8-2.96,6.93-6.76,7L535.62,624.44L535.62,624.44z"/>
	</g>
</g>
</svg>
